<svg id="Layer_1" data-name="Layer 1" xmlns="http://www.w3.org/2000/svg" viewBox="0 0 178.65 170.51"><title>stamp_transparent</title><path d="M92,82.4,77.87,70.78a.85.85,0,0,0-1.39.68l.15,5.7a4,4,0,0,0,3,3.77l11.58,2.95A.85.85,0,0,0,92,82.4Z"/><path d="M43.25,86.24H57.77l-2.7-1.84a8.5,8.5,0,0,1-3.64-5.92,8.64,8.64,0,0,1,3.83-8.33l.08-.05,59.15-41.52a8.59,8.59,0,0,1,13.16,6.08L133.06,75a8.6,8.6,0,0,1-2.78,7.54l-.07.06-4,3.6h14.22a19.09,19.09,0,0,0,2.73-12.55l-5.41-40.39a18.73,18.73,0,0,0-15.06-15.94C118.89,16.11,89.44,7.1,76.46,3.13l-.25-.06A15,15,0,0,0,57.74,13.38l0,.13-15.86,59a18.54,18.54,0,0,0-.5,7.38A22,22,0,0,0,43.25,86.24Z"/><path d="M19.2,152.32l8.34-1L39,97H30.59a9.39,9.39,0,0,0-8.13,4.28L6.24,128.89a6.77,6.77,0,0,0,.58,7.78Z"/><path d="M47.2,94.16l-13.54,64.4L6,161.78,2.5,168h158l15.61-73.85Zm71.26,46.42-7.54,6.22-7.48-9.5-11.52,9.5L87,140.59l11.52-9.5-7.48-9.5,7.54-6.22,7.48,9.5,11.52-9.5,4.89,6.22L111,131.09Z"/></svg>